<svg xmlns="http://www.w3.org/2000/svg" viewBox="0 0 500 500"><g id="freepik--background-simple--inject-179"><path d="M100.93,143.69C75.7,194,83.68,257.41,115.21,304s84,76.73,139.16,87.71c39.38,7.84,81.74,6.24,117.72-11.57s64.27-53.67,66.43-93.76c.81-15.15-2.4-31.23-12.5-42.54-16.14-18.05-43.69-18.69-67.89-17.94s-51.73.18-67.95-17.8c-12.46-13.82-14.29-33.87-20.86-51.28-11.16-29.6-38.09-52.71-69-59.26a90.86,90.86,0,0,0-13-1.76c-34-2.13-66.33,15.39-84.19,44.45Z" style="fill:#f5f5f5"></path></g><g id="freepik--Floor--inject-179"><path d="M473.88,461.86c0,.14-92.69.26-207,.26s-207-.12-207-.26,92.68-.26,207-.26S473.88,461.72,473.88,461.86Z" style="fill:#263238"></path></g><g id="freepik--Plant--inject-179"><path d="M388.05,423.08c-1.77,2.53-5.22,1.69-6.81.15s-2.27-3.79-2.89-5.92c-1.4-4.88-2.81-10-1.77-15a8.31,8.31,0,0,1,1.91-4.06,4.34,4.34,0,0,1,4.11-1.37c1.74.46,2.82,2.16,3.6,3.77a35.75,35.75,0,0,1,3.52,15.3,12.38,12.38,0,0,1-1.67,7.09" style="fill:#009e60"></path><path d="M388.05,423.08c-1.77,2.53-5.22,1.69-6.81.15s-2.27-3.79-2.89-5.92c-1.4-4.88-2.81-10-1.77-15a8.31,8.31,0,0,1,1.91-4.06,4.34,4.34,0,0,1,4.11-1.37c1.74.46,2.82,2.16,3.6,3.77a35.75,35.75,0,0,1,3.52,15.3,12.38,12.38,0,0,1-1.67,7.09" style="opacity:0.2"></path><path d="M381.41,435.89a15.38,15.38,0,0,0-9.52-1.16,8,8,0,0,0-4.71,2.1c-1.17,1.3-1.39,3.58,0,4.7a4.52,4.52,0,0,0,3,.75c2.52,0,5.31-.47,7.32,1,1.15.87,1.92,2.3,3.29,2.73a3.25,3.25,0,0,0,3.57-1.59,5.55,5.55,0,0,0,.4-4.09A6.25,6.25,0,0,0,381.41,435.89Z" style="fill:#009e60"></path><path d="M392.91,426.71a9.2,9.2,0,0,1-1.43-8.47,16.38,16.38,0,0,1,5-7.28,26.94,26.94,0,0,1,9-5.3,9.55,9.55,0,0,1,4-.69,4.24,4.24,0,0,1,3.39,2c.95,1.81,0,4-.94,5.78a69.24,69.24,0,0,1-5.9,9c-1.77,2.28-3.79,4.52-6.49,5.56s-5.5.9-6.92-1" style="fill:#009e60"></path><path d="M388.17,461.24a4.83,4.83,0,0,1-.16-1.15c-.08-.84-.19-1.89-.31-3.14a45.26,45.26,0,0,0-.7-4.6,35.53,35.53,0,0,0-1.68-5.43,19.76,19.76,0,0,0-2.77-4.91,10.5,10.5,0,0,0-3.5-2.92,10,10,0,0,0-3-.92A5.55,5.55,0,0,1,375,438a4.73,4.73,0,0,1,1.16,0,9,9,0,0,1,3.08.8,10.34,10.34,0,0,1,3.7,2.94,19.43,19.43,0,0,1,2.87,5,33.25,33.25,0,0,1,1.67,5.52,41.94,41.94,0,0,1,.61,4.66c.1,1.33.13,2.41.15,3.16A5.54,5.54,0,0,1,388.17,461.24Z" style="fill:#263238"></path><path d="M388,458.83a4,4,0,0,1,0-.54c0-.4,0-.9,0-1.52,0-1.33,0-3.24-.07-5.61-.12-4.73-.53-11.26-1.31-18.44s-1.85-13.64-2.8-18.27c-.23-1.16-.46-2.21-.67-3.12s-.38-1.71-.55-2.35-.26-1.09-.36-1.48a2.24,2.24,0,0,1-.09-.53,2,2,0,0,1,.18.5l.45,1.46c.19.64.4,1.42.62,2.34s.5,2,.74,3.11A173.17,173.17,0,0,1,387,432.67c.79,7.19,1.14,13.74,1.17,18.49,0,2.37,0,4.29-.08,5.61q-.06.93-.09,1.53A2.14,2.14,0,0,1,388,458.83Z" style="fill:#263238"></path><path d="M387.92,446.19a10.15,10.15,0,0,1,0-1.59c.06-1,.2-2.5.49-4.32a56,56,0,0,1,1.4-6.29,56.64,56.64,0,0,1,2.63-7.44,39.6,39.6,0,0,1,7.73-12,19.29,19.29,0,0,1,1.81-1.69c.28-.24.53-.47.78-.66l.7-.49a11,11,0,0,1,1.35-.86,48.26,48.26,0,0,0-4.4,3.93,41.61,41.61,0,0,0-7.53,12,59.15,59.15,0,0,0-2.65,7.37c-.69,2.31-1.14,4.44-1.49,6.23s-.52,3.26-.63,4.27A11.1,11.1,0,0,1,387.92,446.19Z" style="fill:#263238"></path></g><g id="freepik--Notebook--inject-179"><path d="M389.58,373.19,173.24,345.68,210.92,49.35l221.72,28.2a4.42,4.42,0,0,1,3.83,4.94L400.58,364.67A9.83,9.83,0,0,1,389.58,373.19Z" style="fill:#455a64"></path><rect x="423.55" y="122.6" width="14.53" height="27.04" transform="translate(241.44 546.32) rotate(-82.75)" style="fill:#009e60"></rect><rect x="423.55" y="122.6" width="14.53" height="27.04" transform="translate(241.44 546.32) rotate(-82.75)" style="opacity:0.30000000000000004"></rect><rect x="200.47" y="70.71" width="210.9" height="284.06" transform="translate(29.28 -36.89) rotate(7.25)" style="fill:#e0e0e0"></rect><rect x="191.58" y="66.08" width="210.9" height="284.06" transform="translate(28.63 -35.81) rotate(7.25)" style="fill:#fafafa"></rect><rect x="317.26" y="-10.02" width="1" height="210.16" transform="translate(183.37 398.29) rotate(-82.75)" style="fill:#e0e0e0"></rect><rect x="316.79" y="4.15" width="1" height="210.16" transform="translate(168.9 410.22) rotate(-82.75)" style="fill:#e0e0e0"></rect><rect x="315.01" y="18.17" width="1" height="210.16" transform="translate(153.44 420.69) rotate(-82.75)" style="fill:#e0e0e0"></rect><rect x="313.23" y="32.18" width="1" height="210.16" transform="matrix(0.13, -0.99, 0.99, 0.13, 137.99, 431.17)" style="fill:#e0e0e0"></rect><rect x="311.45" y="46.19" width="1" height="210.16" transform="matrix(0.13, -0.99, 0.99, 0.13, 122.53, 441.65)" style="fill:#e0e0e0"></rect><rect x="309.67" y="60.2" width="1" height="210.16" transform="matrix(0.13, -0.99, 0.99, 0.13, 107.07, 452.12)" style="fill:#e0e0e0"></rect><rect x="307.89" y="74.21" width="1" height="210.16" transform="matrix(0.13, -0.99, 0.99, 0.13, 91.62, 462.6)" style="fill:#e0e0e0"></rect><rect x="306.1" y="88.22" width="1" height="210.16" transform="translate(76.16 473.07) rotate(-82.75)" style="fill:#e0e0e0"></rect><rect x="304.32" y="102.24" width="1" height="210.16" transform="translate(60.7 483.55) rotate(-82.75)" style="fill:#e0e0e0"></rect><rect x="302.54" y="116.25" width="1" height="210.16" transform="matrix(0.13, -0.99, 0.99, 0.13, 45.25, 494.03)" style="fill:#e0e0e0"></rect><rect x="300.76" y="130.26" width="1" height="210.16" transform="matrix(0.13, -0.99, 0.99, 0.13, 29.79, 504.5)" style="fill:#e0e0e0"></rect><rect x="298.98" y="144.27" width="1" height="210.16" transform="matrix(0.13, -0.99, 0.99, 0.13, 14.33, 514.98)" style="fill:#e0e0e0"></rect><rect x="297.19" y="158.28" width="1" height="210.16" transform="matrix(0.13, -0.99, 0.99, 0.13, -1.12, 525.46)" style="fill:#e0e0e0"></rect><line x1="191.67" y1="264.12" x2="400.15" y2="290.63" style="fill:#455a64"></line><rect x="293.63" y="186.31" width="1" height="210.16" transform="matrix(0.13, -0.99, 0.99, 0.13, -32.04, 546.41)" style="fill:#e0e0e0"></rect><rect x="291.85" y="200.32" width="1" height="210.16" transform="matrix(0.13, -0.99, 0.99, 0.13, -47.49, 556.89)" style="fill:#e0e0e0"></rect><rect x="290.07" y="214.33" width="1" height="210.16" transform="matrix(0.13, -0.99, 0.99, 0.13, -62.95, 567.36)" style="fill:#e0e0e0"></rect><rect x="288.28" y="228.34" width="1" height="210.16" transform="translate(-78.41 577.84) rotate(-82.75)" style="fill:#e0e0e0"></rect><rect x="84.13" y="199.54" width="283.08" height="1" transform="translate(-1.39 398.5) rotate(-82.71)" style="fill:#009e60"></rect><path d="M228.56,71.3a4.29,4.29,0,1,1-3.72-4.8A4.29,4.29,0,0,1,228.56,71.3Z" style="fill:#455a64"></path><path d="M224.58,102.56a4.29,4.29,0,1,1-3.71-4.79A4.3,4.3,0,0,1,224.58,102.56Z" style="fill:#455a64"></path><path d="M220.6,133.83a4.28,4.28,0,1,1-3.71-4.8A4.28,4.28,0,0,1,220.6,133.83Z" style="fill:#455a64"></path><path d="M216.63,165.09a4.29,4.29,0,1,1-3.72-4.79A4.3,4.3,0,0,1,216.63,165.09Z" style="fill:#455a64"></path><path d="M212.65,196.36a4.29,4.29,0,1,1-3.71-4.79A4.28,4.28,0,0,1,212.65,196.36Z" style="fill:#455a64"></path><path d="M208.67,227.63a4.28,4.28,0,1,1-3.71-4.8A4.28,4.28,0,0,1,208.67,227.63Z" style="fill:#455a64"></path><path d="M204.7,258.89A4.29,4.29,0,1,1,201,254.1,4.29,4.29,0,0,1,204.7,258.89Z" style="fill:#455a64"></path><path d="M200.72,290.16a4.29,4.29,0,1,1-3.71-4.8A4.28,4.28,0,0,1,200.72,290.16Z" style="fill:#455a64"></path><path d="M196.75,321.42a4.29,4.29,0,1,1-3.72-4.79A4.3,4.3,0,0,1,196.75,321.42Z" style="fill:#455a64"></path><path d="M207.32,83.71c0,.05-.17.05-.47,0a6.93,6.93,0,0,1-1.29-.34,9.88,9.88,0,0,1-1.9-1,9.63,9.63,0,0,1-2.1-1.95,10.53,10.53,0,0,1-1.64-3.07,12.64,12.64,0,0,1-.65-3.93,9.52,9.52,0,0,1,.9-4.41,9.76,9.76,0,0,1,3.24-3.59,11.3,11.3,0,0,1,4.44-1.77,13.59,13.59,0,0,1,4.41,0,18.09,18.09,0,0,1,6.79,2.69,24.56,24.56,0,0,1,3.8,3c.81.8,1.2,1.3,1.13,1.38s-.6-.26-1.52-.91a44,44,0,0,0-4-2.54,18.43,18.43,0,0,0-6.43-2.21,12.69,12.69,0,0,0-3.93.08,10.06,10.06,0,0,0-3.84,1.56,8.57,8.57,0,0,0-2.76,3,8.41,8.41,0,0,0-.81,3.71,12.41,12.41,0,0,0,.45,3.53,10,10,0,0,0,1.29,2.81,9.52,9.52,0,0,0,1.74,1.9,11.3,11.3,0,0,0,1.63,1.13c.47.28.87.43,1.13.59S207.34,83.66,207.32,83.71Z" style="fill:#009e60"></path><path d="M203.35,115c0,.06-.18,0-.48,0a7.34,7.34,0,0,1-1.29-.35,9.05,9.05,0,0,1-1.89-1,8.92,8.92,0,0,1-2.1-1.94,10.08,10.08,0,0,1-1.64-3.07,12.71,12.71,0,0,1-.65-3.94,9.4,9.4,0,0,1,.89-4.41,9.9,9.9,0,0,1,3.24-3.58,11.3,11.3,0,0,1,4.45-1.78,13.58,13.58,0,0,1,4.41,0,17.88,17.88,0,0,1,6.78,2.69,24.56,24.56,0,0,1,3.8,3c.82.8,1.21,1.3,1.14,1.38s-.6-.27-1.53-.91a41.47,41.47,0,0,0-4-2.54,18.5,18.5,0,0,0-6.43-2.22,12.75,12.75,0,0,0-3.94.08A10,10,0,0,0,200.31,98a8.57,8.57,0,0,0-2.76,3,8.33,8.33,0,0,0-.81,3.71,12.19,12.19,0,0,0,.44,3.54,9.71,9.71,0,0,0,1.3,2.81,8.89,8.89,0,0,0,1.73,1.89,11,11,0,0,0,1.63,1.13c.47.29.88.44,1.13.6S203.36,114.92,203.35,115Z" style="fill:#009e60"></path><path d="M199.37,146.24s-.18,0-.48,0a7.07,7.07,0,0,1-1.28-.34,9.3,9.3,0,0,1-4-2.92,10.26,10.26,0,0,1-1.64-3.08,12.64,12.64,0,0,1-.65-3.93,9.52,9.52,0,0,1,.9-4.41,9.63,9.63,0,0,1,3.23-3.58,11.42,11.42,0,0,1,4.45-1.78,13.59,13.59,0,0,1,4.41,0,17.93,17.93,0,0,1,6.79,2.7,24.38,24.38,0,0,1,3.79,3c.82.79,1.21,1.29,1.14,1.37s-.6-.26-1.52-.91a45.78,45.78,0,0,0-4-2.53,18.23,18.23,0,0,0-6.43-2.22,12.68,12.68,0,0,0-3.93.08,10.06,10.06,0,0,0-3.84,1.56,8.57,8.57,0,0,0-2.76,3,8.41,8.41,0,0,0-.81,3.71,11.74,11.74,0,0,0,.45,3.53,9.7,9.7,0,0,0,1.29,2.81,9.52,9.52,0,0,0,1.73,1.9,12.52,12.52,0,0,0,1.63,1.13c.48.28.88.44,1.13.6S199.39,146.19,199.37,146.24Z" style="fill:#009e60"></path><path d="M195.39,177.51c0,.05-.17.05-.47,0a7.12,7.12,0,0,1-1.29-.35,8.59,8.59,0,0,1-1.89-1,9.15,9.15,0,0,1-2.11-1.94,10.53,10.53,0,0,1-1.64-3.07,13.27,13.27,0,0,1-.65-3.94,9.56,9.56,0,0,1,.9-4.41,9.9,9.9,0,0,1,3.24-3.58,11.15,11.15,0,0,1,4.44-1.77,13.59,13.59,0,0,1,4.41,0,17.86,17.86,0,0,1,6.79,2.69,24.56,24.56,0,0,1,3.8,3c.81.8,1.2,1.3,1.14,1.38s-.61-.26-1.53-.91a42.8,42.8,0,0,0-4-2.54,18.71,18.71,0,0,0-6.43-2.22,13.07,13.07,0,0,0-3.94.08,10.24,10.24,0,0,0-3.84,1.57,7.56,7.56,0,0,0-3.57,6.7,12.53,12.53,0,0,0,.45,3.54,10,10,0,0,0,1.29,2.81,9.19,9.19,0,0,0,1.74,1.89,11,11,0,0,0,1.63,1.13c.47.29.87.44,1.13.6S195.41,177.45,195.39,177.51Z" style="fill:#009e60"></path><path d="M191.42,208.77s-.18,0-.48,0a8.36,8.36,0,0,1-1.29-.35,9.56,9.56,0,0,1-1.89-1,8.92,8.92,0,0,1-2.1-1.94,10.14,10.14,0,0,1-1.64-3.08,12.64,12.64,0,0,1-.65-3.93,9.63,9.63,0,0,1,.89-4.41,9.82,9.82,0,0,1,3.24-3.58,11.36,11.36,0,0,1,4.45-1.78,13.58,13.58,0,0,1,4.41,0,17.88,17.88,0,0,1,6.78,2.69,24.56,24.56,0,0,1,3.8,3c.82.8,1.21,1.3,1.14,1.37s-.6-.26-1.52-.9a43.2,43.2,0,0,0-4-2.54,18.5,18.5,0,0,0-6.43-2.22,12.68,12.68,0,0,0-3.93.08,10.06,10.06,0,0,0-3.84,1.56,8.57,8.57,0,0,0-2.76,3,8.27,8.27,0,0,0-.81,3.71,12.19,12.19,0,0,0,.44,3.54,10.05,10.05,0,0,0,1.3,2.8,9,9,0,0,0,1.73,1.9,11.88,11.88,0,0,0,1.63,1.13c.47.28.88.44,1.13.6S191.43,208.72,191.42,208.77Z" style="fill:#009e60"></path><path d="M187.44,240c0,.05-.17.05-.47,0a7.83,7.83,0,0,1-1.29-.34,9.44,9.44,0,0,1-1.9-1,9.33,9.33,0,0,1-2.1-1.94,10.53,10.53,0,0,1-1.64-3.07,12.64,12.64,0,0,1-.65-3.93,9.52,9.52,0,0,1,.9-4.41,9.76,9.76,0,0,1,3.24-3.59A11.15,11.15,0,0,1,188,220a13.59,13.59,0,0,1,4.41,0,18.09,18.09,0,0,1,6.79,2.69,24.56,24.56,0,0,1,3.8,3c.81.8,1.2,1.3,1.13,1.38s-.6-.26-1.52-.91a44,44,0,0,0-4-2.54,18.43,18.43,0,0,0-6.43-2.21,12.68,12.68,0,0,0-3.93.07,10.24,10.24,0,0,0-3.84,1.57,7.53,7.53,0,0,0-3.57,6.71,12.07,12.07,0,0,0,.45,3.53,9.7,9.7,0,0,0,1.29,2.81,9.52,9.52,0,0,0,1.74,1.9,10.87,10.87,0,0,0,1.62,1.12c.48.29.88.44,1.14.6S187.46,240,187.44,240Z" style="fill:#009e60"></path><path d="M183.47,271.3c0,.06-.18.05-.48,0a8.36,8.36,0,0,1-1.29-.35,9.05,9.05,0,0,1-1.89-1A9.15,9.15,0,0,1,177.7,268a10.28,10.28,0,0,1-1.63-3.07,12.76,12.76,0,0,1-.65-3.94,9.4,9.4,0,0,1,.89-4.41,9.9,9.9,0,0,1,3.24-3.58,11.3,11.3,0,0,1,4.45-1.78,13.58,13.58,0,0,1,4.41,0,17.88,17.88,0,0,1,6.78,2.69,24.56,24.56,0,0,1,3.8,3c.82.8,1.21,1.3,1.14,1.38s-.61-.27-1.53-.91a41.47,41.47,0,0,0-4-2.54,18.5,18.5,0,0,0-6.43-2.22,12.75,12.75,0,0,0-3.94.08,10,10,0,0,0-3.83,1.56,8.57,8.57,0,0,0-2.76,3,8.3,8.3,0,0,0-.81,3.71,12.19,12.19,0,0,0,.44,3.54,9.71,9.71,0,0,0,1.3,2.81,8.89,8.89,0,0,0,1.73,1.89A11.88,11.88,0,0,0,182,270.4c.47.28.88.44,1.13.6S183.48,271.25,183.47,271.3Z" style="fill:#009e60"></path><path d="M179.49,302.57c0,.05-.18.05-.48,0a7.07,7.07,0,0,1-1.28-.34,9.88,9.88,0,0,1-1.9-1,9.41,9.41,0,0,1-2.1-1.95,10.08,10.08,0,0,1-1.64-3.07,12.64,12.64,0,0,1-.65-3.93,9.52,9.52,0,0,1,.9-4.41,9.74,9.74,0,0,1,3.23-3.59,11.4,11.4,0,0,1,4.45-1.77,13.59,13.59,0,0,1,4.41,0,18.09,18.09,0,0,1,6.79,2.69,24.38,24.38,0,0,1,3.79,3c.82.8,1.21,1.3,1.14,1.38s-.6-.26-1.52-.91a45.45,45.45,0,0,0-4-2.54,18.43,18.43,0,0,0-6.43-2.21,12.68,12.68,0,0,0-3.93.08,10.06,10.06,0,0,0-3.84,1.56,8.57,8.57,0,0,0-2.76,3,8.41,8.41,0,0,0-.81,3.71,11.74,11.74,0,0,0,.45,3.53,9.7,9.7,0,0,0,1.29,2.81,9.5,9.5,0,0,0,1.73,1.9,12.52,12.52,0,0,0,1.63,1.13c.47.28.88.43,1.13.59S179.51,302.52,179.49,302.57Z" style="fill:#009e60"></path><path d="M175.51,333.83c0,.06-.17.05-.47,0a7.12,7.12,0,0,1-1.29-.35,8.86,8.86,0,0,1-1.9-1,9.33,9.33,0,0,1-2.1-1.94,10.53,10.53,0,0,1-1.64-3.07,13.32,13.32,0,0,1-.65-3.94,9.54,9.54,0,0,1,.9-4.41,9.9,9.9,0,0,1,3.24-3.58,11.32,11.32,0,0,1,4.44-1.78,13.58,13.58,0,0,1,4.41,0,17.86,17.86,0,0,1,6.79,2.69,24.56,24.56,0,0,1,3.8,3c.81.8,1.2,1.3,1.13,1.38s-.6-.27-1.52-.91a42.8,42.8,0,0,0-4-2.54,18.49,18.49,0,0,0-6.44-2.22,12.69,12.69,0,0,0-3.93.08,10.06,10.06,0,0,0-3.84,1.56,8.44,8.44,0,0,0-2.75,3,8.34,8.34,0,0,0-.82,3.71,12.53,12.53,0,0,0,.45,3.54,10,10,0,0,0,1.29,2.81,9.19,9.19,0,0,0,1.74,1.89,11,11,0,0,0,1.63,1.13c.47.29.87.44,1.13.6S175.53,333.78,175.51,333.83Z" style="fill:#009e60"></path><g style="opacity:0.2"><path d="M207.32,83.71c0,.05-.17.05-.47,0a6.93,6.93,0,0,1-1.29-.34,9.88,9.88,0,0,1-1.9-1,9.63,9.63,0,0,1-2.1-1.95,10.53,10.53,0,0,1-1.64-3.07,12.64,12.64,0,0,1-.65-3.93,9.52,9.52,0,0,1,.9-4.41,9.76,9.76,0,0,1,3.24-3.59,11.3,11.3,0,0,1,4.44-1.77,13.59,13.59,0,0,1,4.41,0,18.09,18.09,0,0,1,6.79,2.69,24.56,24.56,0,0,1,3.8,3c.81.8,1.2,1.3,1.13,1.38s-.6-.26-1.52-.91a44,44,0,0,0-4-2.54,18.43,18.43,0,0,0-6.43-2.21,12.69,12.69,0,0,0-3.93.08,10.06,10.06,0,0,0-3.84,1.56,8.57,8.57,0,0,0-2.76,3,8.41,8.41,0,0,0-.81,3.71,12.41,12.41,0,0,0,.45,3.53,10,10,0,0,0,1.29,2.81,9.52,9.52,0,0,0,1.74,1.9,11.3,11.3,0,0,0,1.63,1.13c.47.28.87.43,1.13.59S207.34,83.66,207.32,83.71Z"></path><path d="M203.35,115c0,.06-.18,0-.48,0a7.34,7.34,0,0,1-1.29-.35,9.05,9.05,0,0,1-1.89-1,8.92,8.92,0,0,1-2.1-1.94,10.08,10.08,0,0,1-1.64-3.07,12.71,12.71,0,0,1-.65-3.94,9.4,9.4,0,0,1,.89-4.41,9.9,9.9,0,0,1,3.24-3.58,11.3,11.3,0,0,1,4.45-1.78,13.58,13.58,0,0,1,4.41,0,17.88,17.88,0,0,1,6.78,2.69,24.56,24.56,0,0,1,3.8,3c.82.8,1.21,1.3,1.14,1.38s-.6-.27-1.53-.91a41.47,41.47,0,0,0-4-2.54,18.5,18.5,0,0,0-6.43-2.22,12.75,12.75,0,0,0-3.94.08A10,10,0,0,0,200.31,98a8.57,8.57,0,0,0-2.76,3,8.33,8.33,0,0,0-.81,3.71,12.19,12.19,0,0,0,.44,3.54,9.71,9.71,0,0,0,1.3,2.81,8.89,8.89,0,0,0,1.73,1.89,11,11,0,0,0,1.63,1.13c.47.29.88.44,1.13.6S203.36,114.92,203.35,115Z"></path><path d="M199.37,146.24s-.18,0-.48,0a7.07,7.07,0,0,1-1.28-.34,9.3,9.3,0,0,1-4-2.92,10.26,10.26,0,0,1-1.64-3.08,12.64,12.64,0,0,1-.65-3.93,9.52,9.52,0,0,1,.9-4.41,9.63,9.63,0,0,1,3.23-3.58,11.42,11.42,0,0,1,4.45-1.78,13.59,13.59,0,0,1,4.41,0,17.93,17.93,0,0,1,6.79,2.7,24.38,24.38,0,0,1,3.79,3c.82.79,1.21,1.29,1.14,1.37s-.6-.26-1.52-.91a45.78,45.78,0,0,0-4-2.53,18.23,18.23,0,0,0-6.43-2.22,12.68,12.68,0,0,0-3.93.08,10.06,10.06,0,0,0-3.84,1.56,8.57,8.57,0,0,0-2.76,3,8.41,8.41,0,0,0-.81,3.71,11.74,11.74,0,0,0,.45,3.53,9.7,9.7,0,0,0,1.29,2.81,9.52,9.52,0,0,0,1.73,1.9,12.52,12.52,0,0,0,1.63,1.13c.48.28.88.44,1.13.6S199.39,146.19,199.37,146.24Z"></path><path d="M195.39,177.51c0,.05-.17.05-.47,0a7.12,7.12,0,0,1-1.29-.35,8.59,8.59,0,0,1-1.89-1,9.15,9.15,0,0,1-2.11-1.94,10.53,10.53,0,0,1-1.64-3.07,13.27,13.27,0,0,1-.65-3.94,9.56,9.56,0,0,1,.9-4.41,9.9,9.9,0,0,1,3.24-3.58,11.15,11.15,0,0,1,4.44-1.77,13.59,13.59,0,0,1,4.41,0,17.86,17.86,0,0,1,6.79,2.69,24.56,24.56,0,0,1,3.8,3c.81.8,1.2,1.3,1.14,1.38s-.61-.26-1.53-.91a42.8,42.8,0,0,0-4-2.54,18.71,18.71,0,0,0-6.43-2.22,13.07,13.07,0,0,0-3.94.08,10.24,10.24,0,0,0-3.84,1.57,7.56,7.56,0,0,0-3.57,6.7,12.53,12.53,0,0,0,.45,3.54,10,10,0,0,0,1.29,2.81,9.19,9.19,0,0,0,1.74,1.89,11,11,0,0,0,1.63,1.13c.47.29.87.44,1.13.6S195.41,177.45,195.39,177.51Z"></path><path d="M191.42,208.77s-.18,0-.48,0a8.36,8.36,0,0,1-1.29-.35,9.56,9.56,0,0,1-1.89-1,8.92,8.92,0,0,1-2.1-1.94,10.14,10.14,0,0,1-1.64-3.08,12.64,12.64,0,0,1-.65-3.93,9.63,9.63,0,0,1,.89-4.41,9.82,9.82,0,0,1,3.24-3.58,11.36,11.36,0,0,1,4.45-1.78,13.58,13.58,0,0,1,4.41,0,17.88,17.88,0,0,1,6.78,2.69,24.56,24.56,0,0,1,3.8,3c.82.8,1.21,1.3,1.14,1.37s-.6-.26-1.52-.9a43.2,43.2,0,0,0-4-2.54,18.5,18.5,0,0,0-6.43-2.22,12.68,12.68,0,0,0-3.93.08,10.06,10.06,0,0,0-3.84,1.56,8.57,8.57,0,0,0-2.76,3,8.27,8.27,0,0,0-.81,3.71,12.19,12.19,0,0,0,.44,3.54,10.05,10.05,0,0,0,1.3,2.8,9,9,0,0,0,1.73,1.9,11.88,11.88,0,0,0,1.63,1.13c.47.28.88.44,1.13.6S191.43,208.72,191.42,208.77Z"></path><path d="M187.44,240c0,.05-.17.05-.47,0a7.83,7.83,0,0,1-1.29-.34,9.44,9.44,0,0,1-1.9-1,9.33,9.33,0,0,1-2.1-1.94,10.53,10.53,0,0,1-1.64-3.07,12.64,12.64,0,0,1-.65-3.93,9.52,9.52,0,0,1,.9-4.41,9.76,9.76,0,0,1,3.24-3.59A11.15,11.15,0,0,1,188,220a13.59,13.59,0,0,1,4.41,0,18.09,18.09,0,0,1,6.79,2.69,24.56,24.56,0,0,1,3.8,3c.81.8,1.2,1.3,1.13,1.38s-.6-.26-1.52-.91a44,44,0,0,0-4-2.54,18.43,18.43,0,0,0-6.43-2.21,12.68,12.68,0,0,0-3.93.07,10.24,10.24,0,0,0-3.84,1.57,7.53,7.53,0,0,0-3.57,6.71,12.07,12.07,0,0,0,.45,3.53,9.7,9.7,0,0,0,1.29,2.81,9.52,9.52,0,0,0,1.74,1.9,10.87,10.87,0,0,0,1.62,1.12c.48.29.88.44,1.14.6S187.46,240,187.44,240Z"></path><path d="M183.47,271.3c0,.06-.18.05-.48,0a8.36,8.36,0,0,1-1.29-.35,9.05,9.05,0,0,1-1.89-1A9.15,9.15,0,0,1,177.7,268a10.28,10.28,0,0,1-1.63-3.07,12.76,12.76,0,0,1-.65-3.94,9.4,9.4,0,0,1,.89-4.41,9.9,9.9,0,0,1,3.24-3.58,11.3,11.3,0,0,1,4.45-1.78,13.58,13.58,0,0,1,4.41,0,17.88,17.88,0,0,1,6.78,2.69,24.56,24.56,0,0,1,3.8,3c.82.8,1.21,1.3,1.14,1.38s-.61-.27-1.53-.91a41.47,41.47,0,0,0-4-2.54,18.5,18.5,0,0,0-6.43-2.22,12.75,12.75,0,0,0-3.94.08,10,10,0,0,0-3.83,1.56,8.57,8.57,0,0,0-2.76,3,8.3,8.3,0,0,0-.81,3.71,12.19,12.19,0,0,0,.44,3.54,9.71,9.71,0,0,0,1.3,2.81,8.89,8.89,0,0,0,1.73,1.89A11.88,11.88,0,0,0,182,270.4c.47.28.88.44,1.13.6S183.48,271.25,183.47,271.3Z"></path><path d="M179.49,302.57c0,.05-.18.05-.48,0a7.07,7.07,0,0,1-1.28-.34,9.88,9.88,0,0,1-1.9-1,9.41,9.41,0,0,1-2.1-1.95,10.08,10.08,0,0,1-1.64-3.07,12.64,12.64,0,0,1-.65-3.93,9.52,9.52,0,0,1,.9-4.41,9.74,9.74,0,0,1,3.23-3.59,11.4,11.4,0,0,1,4.45-1.77,13.59,13.59,0,0,1,4.41,0,18.09,18.09,0,0,1,6.79,2.69,24.38,24.38,0,0,1,3.79,3c.82.8,1.21,1.3,1.14,1.38s-.6-.26-1.52-.91a45.45,45.45,0,0,0-4-2.54,18.43,18.43,0,0,0-6.43-2.21,12.68,12.68,0,0,0-3.93.08,10.06,10.06,0,0,0-3.84,1.56,8.57,8.57,0,0,0-2.76,3,8.41,8.41,0,0,0-.81,3.71,11.74,11.74,0,0,0,.45,3.53,9.7,9.7,0,0,0,1.29,2.81,9.5,9.5,0,0,0,1.73,1.9,12.52,12.52,0,0,0,1.63,1.13c.47.28.88.43,1.13.59S179.51,302.52,179.49,302.57Z"></path><path d="M175.51,333.83c0,.06-.17.05-.47,0a7.12,7.12,0,0,1-1.29-.35,8.86,8.86,0,0,1-1.9-1,9.33,9.33,0,0,1-2.1-1.94,10.53,10.53,0,0,1-1.64-3.07,13.32,13.32,0,0,1-.65-3.94,9.54,9.54,0,0,1,.9-4.41,9.9,9.9,0,0,1,3.24-3.58,11.32,11.32,0,0,1,4.44-1.78,13.58,13.58,0,0,1,4.41,0,17.86,17.86,0,0,1,6.79,2.69,24.56,24.56,0,0,1,3.8,3c.81.8,1.2,1.3,1.13,1.38s-.6-.27-1.52-.91a42.8,42.8,0,0,0-4-2.54,18.49,18.49,0,0,0-6.44-2.22,12.69,12.69,0,0,0-3.93.08,10.06,10.06,0,0,0-3.84,1.56,8.44,8.44,0,0,0-2.75,3,8.34,8.34,0,0,0-.82,3.71,12.53,12.53,0,0,0,.45,3.54,10,10,0,0,0,1.29,2.81,9.19,9.19,0,0,0,1.74,1.89,11,11,0,0,0,1.63,1.13c.47.29.87.44,1.13.6S175.53,333.78,175.51,333.83Z"></path></g><rect x="423.61" y="112.82" width="14.53" height="24.33" transform="translate(252.53 536.65) rotate(-82.75)" style="fill:#009e60"></rect><path d="M400.77,127.11a2,2,0,0,1-.4,0L399.2,127l-4.48-.54-16.49-2.1-54.35-7.13-15.49-2.06c-5-.66-9.83-1.34-14.42-1.9a50.89,50.89,0,0,0-13.08-.14c-4.05.57-7.88,1.44-11.44,1a13.48,13.48,0,0,1-4.81-1.49c-1.41-.74-2.64-1.59-3.82-2.32a20.18,20.18,0,0,0-3.41-1.8,9.62,9.62,0,0,0-3.15-.59,6.1,6.1,0,0,0-4.15,1.35,6.54,6.54,0,0,0-1,1.19,2,2,0,0,1,.19-.36,2.31,2.31,0,0,1,.28-.41,3,3,0,0,1,.47-.5,6.07,6.07,0,0,1,4.22-1.47,9.82,9.82,0,0,1,3.24.56A20.42,20.42,0,0,1,261,110c1.19.73,2.43,1.56,3.82,2.28a13.44,13.44,0,0,0,4.7,1.42c3.48.39,7.26-.48,11.34-1.08a50.75,50.75,0,0,1,13.19.09c4.62.55,9.43,1.23,14.44,1.87l15.49,2,54.33,7.28,16.46,2.27,4.48.64,1.16.18A1.76,1.76,0,0,1,400.77,127.11Z" style="fill:#263238"></path><path d="M396.54,141.66l-.37,0-1.09-.12-4.2-.48-15.41-1.88-50.83-6.38-50.82-6.54-15.39-2-4.18-.59-1.09-.16a2.41,2.41,0,0,1-.37-.07,1.37,1.37,0,0,1,.38,0l1.09.11,4.19.48,15.42,1.88,50.84,6.39,50.81,6.54,15.39,2,4.18.58,1.09.16A1.35,1.35,0,0,1,396.54,141.66Z" style="fill:#263238"></path><path d="M379.46,225.62l-.35,0-1-.11-4-.46-14.65-1.78-48.31-6.06L262.81,211,248.18,209l-4-.55-1-.16-.35-.07a1.84,1.84,0,0,1,.35,0l1,.1,4,.46,14.65,1.78,48.32,6.07,48.3,6.22,14.63,1.94,4,.56,1,.15A1.19,1.19,0,0,1,379.46,225.62Z" style="fill:#263238"></path><path d="M375.85,254l-.35,0-1-.1-4-.46-14.65-1.78-48.32-6.07-48.3-6.22-14.63-1.94-4-.56-1-.15-.35-.07a1.43,1.43,0,0,1,.36,0l1,.11,4,.46L259.25,239l48.32,6.07,48.29,6.21,14.64,2,4,.55,1,.16A2.07,2.07,0,0,1,375.85,254Z" style="fill:#263238"></path><path d="M374.85,239.17a1.84,1.84,0,0,1-.35,0l-1-.1-3.9-.45-14.35-1.74-47.31-5.94-47.29-6.09-14.33-1.91-3.89-.54-1-.15-.34-.07a1.33,1.33,0,0,1,.35,0l1,.11,3.91.44,14.34,1.74L308,230.4l47.29,6.1,14.32,1.9,3.89.54,1,.16Z" style="fill:#263238"></path><path d="M299,257.11a2.74,2.74,0,0,1-.63,0l-1.79-.18-6.59-.76-21.7-2.68-21.68-2.84-6.57-.91-1.78-.28a2.91,2.91,0,0,1-.62-.13,2.51,2.51,0,0,1,.63,0l1.8.18,6.58.75L268.32,253,290,255.79l6.57.92,1.78.27A2.69,2.69,0,0,1,299,257.11Z" style="fill:#263238"></path><path d="M271.18,138.43c0,.14-5.17-.4-11.5-1.2s-11.44-1.58-11.42-1.72,5.16.39,11.49,1.2S271.19,138.28,271.18,138.43Z" style="fill:#263238"></path><path d="M381.44,210.08a1.33,1.33,0,0,1-.35,0l-1-.1c-.88-.1-2.18-.24-3.85-.38s-3.73-.3-6.11-.44-5.1-.28-8.11-.41c-6-.27-13.17-.45-21.11-.92-4-.24-8.14-.54-12.45-1.1s-8.71-1.29-13.25-2l-46.48-7.11-14.08-2.22-3.82-.63-1-.18a1.15,1.15,0,0,1-.33-.08l.34,0,1,.13,3.84.53,14.09,2.06,46.5,7c4.54.67,9,1.38,13.25,2s8.44.87,12.41,1.12c7.93.49,15.09.72,21.1,1,3,.16,5.72.31,8.11.49s4.43.35,6.11.53,3,.34,3.85.48l1,.15A2.85,2.85,0,0,1,381.44,210.08Z" style="fill:#263238"></path></g></svg>