<svg xmlns="http://www.w3.org/2000/svg" version="1.1" xmlns:xlink="http://www.w3.org/1999/xlink" xmlns:svgjs="http://svgjs.com/svgjs" width="500" height="500"><svg xmlns="http://www.w3.org/2000/svg" xmlns:xlink="http://www.w3.org/1999/xlink" viewBox="0 0 500 500"><defs><clipPath id="SvgjsClipPath1002"><path d="M171.72,156.62c-2.34-12-10.31-13.56-12.12-14.13-12.47-3.93-21-4.59-30.86-.27-11.55,5.08-13.87,5.26-17.43,18.44-2,7.21,1.93,31.49,4.27,42.06,1.87,8.41,1.4,30.2,5,33.69,6.68,6.47,16.15,5.54,25.31,3.92,7.93-1.41,21.17-3.29,24.18-10.76.43-1.07.39-5.59.24-12.11-.48-19.73.84-31.05.64-43.68l2.68-1.24S173.86,167.55,171.72,156.62Z" style="fill:#92E3A9;stroke:#263238;stroke-miterlimit:10"></path></clipPath></defs><g id="SvgjsG1001"><rect x="164.95" y="89.61" width="192" height="255.21" style="fill:#fff"></rect><path d="M357,345.32H165a.5.5,0,0,1-.5-.5V89.61a.5.5,0,0,1,.5-.5H357a.5.5,0,0,1,.5.5V344.82A.5.5,0,0,1,357,345.32Zm-191.5-1h191V90.11h-191Z" style="fill:#263238"></path><rect x="185.98" y="221.11" width="146.14" height="6" style="fill:#263238"></rect><rect x="213.07" y="145.54" width="119.05" height="6" style="fill:#263238"></rect><rect x="185.98" y="183.33" width="146.14" height="6" style="fill:#263238"></rect><path d="M294.57,296.67q-2.79,3-5.7,6H186v-6Z" style="fill:#263238"></path><path d="M323.28,258.89c-1.28,2-2.59,4-3.95,6H186v-6Z" style="fill:#263238"></path><path d="M237.66,337.93s-8.54,4.15-32.46,6.39H165.45" style="fill:none;stroke:#263238;stroke-linecap:round;stroke-linejoin:round"></path><path d="M352.79,199h0a15.84,15.84,0,0,0,2.6-7.43c.3-3.34.52-7.23.59-9.6l.38-13.09V197Z" style="fill:#263238"></path><path d="M355.24,195.84c0,1.22-11.18,30.7-32,63-1.28,2-2.59,4-3.95,6a273.46,273.46,0,0,1-24.76,31.78q-2.79,3-5.7,6c-14.65,14.86-31.53,27.51-50.44,34.76,1.08-.55,17.55-8.86,21.14-34.76q.4-2.85.57-6c.48-8.76-.46-19.26-3.64-31.78q-.74-2.92-1.65-6c-4.62-15.61-12.56-34.11-25.21-56l-3.26-7.1,21.3,6c95.13,22.09,107.55-6,107.55-6S355.24,195.82,355.24,195.84Z" style="fill:#fff;stroke:#263238;stroke-linecap:round;stroke-linejoin:round"></path><path d="M273.39,284.83a44.17,44.17,0,0,1-.12,5.31" style="fill:#fff;stroke:#263238;stroke-linecap:round;stroke-linejoin:round"></path><path d="M250.51,216.74c13.82,17.9,20.79,48.15,22.61,62.5" style="fill:#fff;stroke:#263238;stroke-linecap:round;stroke-linejoin:round"></path><path d="M188.12,117.43a10.06,10.06,0,1,1,0-20.11,1.5,1.5,0,0,1,0,3,7.06,7.06,0,1,0,7,7.06,1.5,1.5,0,1,1,3,0A10.06,10.06,0,0,1,188.12,117.43Z" style="fill:#263238"></path><path d="M187.88,113.28c-9.19,0-9.69-19.86-9.7-23.84v-.12c0-4,.47-24,9.7-24s9.87,21.54,9.92,24l-8,.15a48.88,48.88,0,0,0-2-13.67,48.42,48.42,0,0,0-1.64,13.48v.12a47.45,47.45,0,0,0,1.7,13.54c.09-.29.18-.61.28-1l.63-2.17,5.58,1.63a2.19,2.19,0,0,1,1.49,2.72h0C194.22,110.19,191.53,113.28,187.88,113.28Z" style="fill:#bfbfbf;stroke:#263238;stroke-linecap:round;stroke-linejoin:round"></path><path d="M196.67,108.88a1.5,1.5,0,0,1-1.5-1.5,7.06,7.06,0,0,0-7-7.06,1.5,1.5,0,0,1,0-3,10.07,10.07,0,0,1,10,10.06A1.5,1.5,0,0,1,196.67,108.88Z" style="fill:#263238"></path><path d="M235.52,117.43a10.06,10.06,0,0,1,0-20.11,1.5,1.5,0,1,1,0,3,7.06,7.06,0,1,0,7.06,7.06,1.5,1.5,0,0,1,3,0A10.07,10.07,0,0,1,235.52,117.43Z" style="fill:#263238"></path><path d="M235.29,113.28c-9.19,0-9.7-19.86-9.7-23.84v-.12c0-4,.46-24,9.7-24s9.87,21.54,9.92,24l-8,.15a48.81,48.81,0,0,0-2-13.67,48.5,48.5,0,0,0-1.63,13.48v.12A47.89,47.89,0,0,0,235.28,103c.1-.29.19-.61.29-1l.63-2.17,5.58,1.63a2.19,2.19,0,0,1,1.49,2.72h0C241.63,110.19,238.94,113.28,235.29,113.28Z" style="fill:#bfbfbf;stroke:#263238;stroke-linecap:round;stroke-linejoin:round"></path><path d="M244.08,108.88a1.5,1.5,0,0,1-1.5-1.5,7.07,7.07,0,0,0-7.06-7.06,1.5,1.5,0,0,1,0-3,10.07,10.07,0,0,1,10.06,10.06A1.5,1.5,0,0,1,244.08,108.88Z" style="fill:#263238"></path><path d="M282.93,117.43a10.06,10.06,0,0,1,0-20.11,1.5,1.5,0,0,1,0,3,7.06,7.06,0,1,0,7.06,7.06,1.5,1.5,0,0,1,3,0A10.07,10.07,0,0,1,282.93,117.43Z" style="fill:#263238"></path><path d="M282.69,113.28c-9.19,0-9.69-19.86-9.7-23.84v-.12c0-4,.47-24,9.7-24s9.88,21.54,9.92,24l-8,.15a48.88,48.88,0,0,0-2-13.67A48.42,48.42,0,0,0,281,89.32v.12a47.45,47.45,0,0,0,1.7,13.54c.09-.29.19-.61.28-1l.64-2.17,5.57,1.63a2.19,2.19,0,0,1,1.49,2.72h0C289,110.19,286.35,113.28,282.69,113.28Z" style="fill:#bfbfbf;stroke:#263238;stroke-linecap:round;stroke-linejoin:round"></path><path d="M291.49,108.88a1.5,1.5,0,0,1-1.5-1.5,7.07,7.07,0,0,0-7.06-7.06,1.5,1.5,0,0,1,0-3A10.07,10.07,0,0,1,293,107.38,1.51,1.51,0,0,1,291.49,108.88Z" style="fill:#263238"></path><path d="M330.34,117.43a10.06,10.06,0,1,1,0-20.11,1.5,1.5,0,0,1,0,3,7.06,7.06,0,1,0,7.05,7.06,1.5,1.5,0,0,1,3,0A10.06,10.06,0,0,1,330.34,117.43Z" style="fill:#263238"></path><path d="M330.1,113.28c-9.19,0-9.69-19.86-9.7-23.84v-.12c0-4,.47-24,9.7-24S340,86.9,340,89.36l-8,.15a49.26,49.26,0,0,0-2-13.67,48,48,0,0,0-1.64,13.48v.12A47.89,47.89,0,0,0,330.09,103c.1-.29.19-.61.29-1l.63-2.17,5.58,1.63a2.19,2.19,0,0,1,1.49,2.72h0C336.44,110.19,333.75,113.28,330.1,113.28Z" style="fill:#bfbfbf;stroke:#263238;stroke-linecap:round;stroke-linejoin:round"></path><path d="M338.89,108.88a1.5,1.5,0,0,1-1.5-1.5,7.06,7.06,0,0,0-7.05-7.06,1.5,1.5,0,0,1,0-3,10.07,10.07,0,0,1,10.05,10.06A1.5,1.5,0,0,1,338.89,108.88Z" style="fill:#263238"></path></g><g id="SvgjsG1000"><circle cx="345.96" cy="333.53" r="37.53" transform="translate(-56.63 595.93) rotate(-77.05)" style="fill:#92E3A9;stroke:#263238;stroke-miterlimit:10"></circle><path d="M367.85,333.53a3.49,3.49,0,0,1-3.5,3.5H349.46v14.9a3.5,3.5,0,0,1-7,0V337H327.57a3.5,3.5,0,1,1,0-7h14.89V315.14a3.5,3.5,0,0,1,7,0V330h14.89A3.5,3.5,0,0,1,367.85,333.53Z" style="fill:#fff"></path></g></svg><style>@media (prefers-color-scheme: light) { :root { filter: contrast(1) brightness(0.8); } }
</style></svg>